<svg viewBox="0 0 1024 1024" version="1.1" xmlns="http://www.w3.org/2000/svg" ><path d="M466.990545 147.176727h164.77091c4.654545 0 6.935273 2.327273 6.935272 6.935273v701.579636c0 4.608-2.327273 6.888727-6.935272 6.888728h-164.77091c-4.654545 0-6.935273-2.327273-6.935272-6.888728V154.065455c0-4.654545 2.327273-6.935273 6.935272-6.935273z" fill="#AE70FF" ></path><path d="M717.870545 147.176727h163.793455c5.306182 0 7.912727 2.653091 7.912727 7.912728V283.927273c0 5.306182-2.606545 7.912727-7.912727 7.912727h-163.84c-5.259636 0-7.912727-2.606545-7.912727-7.912727V155.136c0-5.306182 2.653091-7.912727 7.912727-7.912727z" fill="#AE70FF" opacity=".6" ></path><path d="M123.717818 862.394182v-10.984727l73.402182-139.403637a37.562182 37.562182 0 0 0 4.328727-17.687273l0.139637-386.373818c0-6.190545 1.442909-12.055273 4.375272-17.547636l72.238546-137.448727a2.653091 2.653091 0 0 1 2.327273-1.396364h105.05309c1.442909 0 2.187636 0.744727 2.187637 2.234182v538.112a37.888 37.888 0 0 1-4.514909 18.152727c-26.996364 50.362182-53.946182 100.724364-80.802909 151.133091a3.816727 3.816727 0 0 1-3.304728 2.187636c-15.313455 1.489455-32.349091-0.930909-45.521454-0.465454-43.287273 1.582545-86.574545 1.396364-129.861818-0.512zM720.942545 342.295273h157.649455c7.354182 0 10.984727 3.630545 10.984727 10.984727v498.362182c0 7.354182-3.630545 11.031273-10.984727 11.031273h-157.649455c-7.354182 0-11.031273-3.677091-11.031272-11.031273V353.28c0-7.354182 3.677091-10.984727 11.031272-10.984727z" fill="#AE70FF" ></path></svg>